STARTFONT 2.3
FONT -FontForge-Bitstream Vera Sans Mono-Book-R-Normal-SansMono--12-120-75-75-P-69-ISO10646-1
SIZE 12 75 75  8
FONTBOUNDINGBOX 9 14 -1 -4
COMMENT "Generated by fontforge, http://fontforge.sourceforge.net"
STARTPROPERTIES 29
FONT_NAME "BitstreamVeraSansMono-Roman"
FONT_ASCENT 9
FONT_DESCENT 3
UNDERLINE_POSITION -213
UNDERLINE_THICKNESS 141
QUAD_WIDTH 12
X_HEIGHT 9
CAP_HEIGHT 6
DEFAULT_CHAR 1
FONTNAME_REGISTRY ""
FAMILY_NAME "Bitstream Vera Sans Mono"
FOUNDRY "FontForge"
WEIGHT_NAME "Book"
SETWIDTH_NAME "Normal"
SLANT "R"
ADD_STYLE_NAME "SansMono-"
PIXEL_SIZE 12
POINT_SIZE 120
RESOLUTION_X 75
RESOLUTION_Y 75
RESOLUTION 75
SPACING "P"
AVERAGE_WIDTH 69
BITS_PER_PIXEL 8
CHARSET_REGISTRY "ISO10646"
CHARSET_ENCODING "-1"
CHARSET_COLLECTIONS "ASCII ISO8859-9 ISO10646-1"
FULL_NAME "Bitstream Vera Sans Mono"
COPYRIGHT "Copyright (c) 2003 by Bitstream, Inc. All Rights Reserved."
ENDPROPERTIES
CHARS 269
STARTCHAR .null
ENCODING 0
SWIDTH 0 0
DWIDTH 0 0
BBX 1 1 0 0
BITMAP
00
ENDCHAR
STARTCHAR nonmarkingreturn
ENCODING 12
SWIDTH 602 0
DWIDTH 7 0
BBX 1 1 0 0
BITMAP
00
ENDCHAR
STARTCHAR space
ENCODING 32
SWIDTH 602 0
DWIDTH 7 0
BBX 1 1 0 0
BITMAP
00
ENDCHAR
STARTCHAR exclam
ENCODING 33
SWIDTH 602 0
DWIDTH 7 0
BBX 2 10 3 0
BITMAP
5614
F838
F838
F838
F838
EF2D
DF1F
0000
9422
F838
ENDCHAR
STARTCHAR quotedbl
ENCODING 34
SWIDTH 602 0
DWIDTH 7 0
BBX 5 5 1 5
BITMAP
0258004516
04FF00C840
04FF00C840
04FF00C840
0124001D09
ENDCHAR
STARTCHAR numbersign
ENCODING 35
SWIDTH 602 0
DWIDTH 7 0
BBX 8 10 0 0
BITMAP
00000031011E1300
000018D900B83800
0000539D04E80600
319CCDCAA9EE9C20
1D5CE46EA7AC5C13
000CE501A74A0000
8AA3E28CEC9A4B00
67BAA582DC683800
00BA345C92000000
04E6049A56000000
ENDCHAR
STARTCHAR dollar
ENCODING 36
SWIDTH 602 0
DWIDTH 7 0
BBX 6 12 1 -2
BITMAP
000063060000
000FA4380800
54DED4B9DE00
D545880C0D00
D364880C0000
4BEFF3922B00
0009A38CEF30
00008C109F7E
62108C1ED059
8CDCF3E98702
00008B100000
00007B0F0000
ENDCHAR
STARTCHAR percent
ENCODING 37
SWIDTH 602 0
DWIDTH 7 0
BBX 8 9 0 0
BITMAP
2ED4DC4B00000000
B03516CD00000000
B4270ECF00000600
37D8DC55359B8400
00065BAD7E170000
3CAE5929CEDF5B00
0300009A3E0DD802
000000A43B0AD502
0000002BD3DD6000
ENDCHAR
STARTCHAR ampersand
ENCODING 38
SWIDTH 602 0
DWIDTH 7 0
BBX 8 10 0 0
BITMAP
0000245438030000
0044EEA4C71C0000
0097780000010000
0076AA0000000000
0050FF4700000000
26E061E51400A103
8D80008BB001E800
A1760007D191BE00
58DB18004AFF5700
0176DECEC69CC805
ENDCHAR
STARTCHAR quotesingle
ENCODING 39
SWIDTH 602 0
DWIDTH 7 0
BBX 2 5 3 5
BITMAP
500A
E81C
E81C
E81C
2104
ENDCHAR
STARTCHAR parenleft
ENCODING 40
SWIDTH 602 0
DWIDTH 7 0
BBX 4 12 2 -2
BITMAP
0007A508
006A9700
01D73600
28EF0200
5EC20000
79AC0000
78AD0000
5BC50000
23F30400
00D03F00
0061A100
00049509
ENDCHAR
STARTCHAR parenright
ENCODING 41
SWIDTH 602 0
DWIDTH 7 0
BBX 3 12 2 -2
BITMAP
912400
60A200
0BF015
00B963
008A99
0074B3
0076B2
008D96
00BE5F
0FF112
689B00
881E00
ENDCHAR
STARTCHAR asterisk
ENCODING 42
SWIDTH 602 0
DWIDTH 7 0
BBX 7 7 0 3
BITMAP
0000003C000000
001100AC001101
019D7CB256B313
00005FFF980200
01819DBF7F9D0F
003000AC002A05
00000056000000
ENDCHAR
STARTCHAR plus
ENCODING 43
SWIDTH 602 0
DWIDTH 7 0
BBX 7 8 0 0
BITMAP
0000004D0A0000
000000E01C0000
000000E01C0000
448C8CF2998C63
408484F192845D
000000E01C0000
000000E01C0000
00000043090000
ENDCHAR
STARTCHAR comma
ENCODING 44
SWIDTH 602 0
DWIDTH 7 0
BBX 3 4 2 -2
BITMAP
0FE461
1BFF57
54E005
705E00
ENDCHAR
STARTCHAR hyphen
ENCODING 45
SWIDTH 602 0
DWIDTH 7 0
BBX 4 2 2 3
BITMAP
08080802
E8FFFF24
ENDCHAR
STARTCHAR period
ENCODING 46
SWIDTH 602 0
DWIDTH 7 0
BBX 3 2 2 0
BITMAP
21E850
24FF58
ENDCHAR
STARTCHAR slash
ENCODING 47
SWIDTH 602 0
DWIDTH 7 0
BBX 7 12 0 -2
BITMAP
00000000004D17
000000002CEC0A
000000009B8500
00000015F21B00
0000007BA60000
000006E5370000
00005AC6000000
0001CA56000000
003AE305000000
00AA7600000000
1EF11200000000
13280000000000
ENDCHAR
STARTCHAR zero
ENCODING 48
SWIDTH 602 0
DWIDTH 7 0
BBX 7 10 0 0
BITMAP
00001B532F0000
003FEFACE87600
00C96F0030F812
0EFF220000E24E
2AFF096A13C56C
2EFF1DFE4FBF73
20FF0D1401CC65
04F4340004F13C
00A1A6056AE004
0015BBF9D83600
ENDCHAR
STARTCHAR one
ENCODING 49
SWIDTH 602 0
DWIDTH 7 0
BBX 6 10 1 0
BITMAP
012153350000
88FBF0980000
1D0A94980000
000094980000
000094980000
000094980000
000094980000
000094980000
07109B9F1007
6CFFFFFFFF68
ENDCHAR
STARTCHAR two
ENCODING 50
SWIDTH 602 0
DWIDTH 7 0
BBX 7 11 0 -1
BITMAP
000A4354220000
07F1D4BDF66D00
053B000051F70A
000000001FFF1A
0000000066DA01
0000001EEB4600
00000ED1730000
0006BA96010000
01A1B304000000
20FFEEEAECEE2D
04202020202006
ENDCHAR
STARTCHAR three
ENCODING 51
SWIDTH 602 0
DWIDTH 7 0
BBX 7 10 0 0
BITMAP
00144654260000
00E3C3B6F27C00
000900003DFB0A
000000002AFD0C
00005A87D27600
00005A89D17700
0000000014F828
0000000001EB47
2058161176F616
20C6F6FDD24700
ENDCHAR
STARTCHAR four
ENCODING 52
SWIDTH 602 0
DWIDTH 7 0
BBX 7 10 0 0
BITMAP
00000003562B00
00000065FE7C00
000012CFBA7C00
0000955EB07C00
0030CA02B07C00
01C43F00B07C00
4FD24040C49D2A
50C4C4C4EEE281
00000000B07C00
00000000B07C00
ENDCHAR
STARTCHAR five
ENCODING 53
SWIDTH 602 0
DWIDTH 7 0
BBX 7 10 0 0
BITMAP
00455858583900
00C8CBB4B47400
00C84C00000000
00C8622F0A0000
00C8E3E8F04E00
0017000177EF09
0000000005FC34
000000000AFE2E
174F0E1294DB03
1CDCFEFABE2800
ENDCHAR
STARTCHAR six
ENCODING 54
SWIDTH 602 0
DWIDTH 7 0
BBX 7 10 0 0
BITMAP
00000A47501C00
0025E3CCB4C000
00B68A00000500
0BFB13170D0000
2BE8A7DAF08600
32FF7A001DF635
25FF210000C46A
07F9270000C966
00AD970538FA28
001ABDF8E76500
ENDCHAR
STARTCHAR seven
ENCODING 55
SWIDTH 602 0
DWIDTH 7 0
BBX 7 10 0 0
BITMAP
1158585858581D
23B8B8B8BCFF36
000000004ADC01
00000000A88100
00000010F72600
00000065CA0000
000000C36F0000
000022FC180000
00007FB9000000
0001DD5E000000
ENDCHAR
STARTCHAR eight
ENCODING 56
SWIDTH 602 0
DWIDTH 7 0
BBX 7 10 0 0
BITMAP
00002A553B0200
007EE292CBBA03
00F542000CFB34
00E840000AFA27
0050C782B88100
006FCC88C1A204
18FD1D0005E352
34FC030000C870
0DF3670136F93B
0047D7F7E56E00
ENDCHAR
STARTCHAR nine
ENCODING 57
SWIDTH 602 0
DWIDTH 7 0
BBX 7 10 0 0
BITMAP
00003155290000
008FE4A3E76D00
1CFF26002CF40A
42F0000000EE3D
34FA070009FA59
04DC91329BF25E
0023A2C06DC94E
000000000EF61D
00321519A7B300
007BF4F7AB1300
ENDCHAR
STARTCHAR colon
ENCODING 58
SWIDTH 602 0
DWIDTH 7 0
BBX 3 7 2 0
BITMAP
18A83A
24FF58
093C15
000000
000000
21E850
24FF58
ENDCHAR
STARTCHAR semicolon
ENCODING 59
SWIDTH 602 0
DWIDTH 7 0
BBX 3 9 2 -2
BITMAP
18A83A
24FF58
093C15
000000
000000
0FE461
1BFF57
54E005
705E00
ENDCHAR
STARTCHAR less
ENCODING 60
SWIDTH 602 0
DWIDTH 7 0
BBX 7 8 0 0
BITMAP
00000000000008
000000013AA6AE
000A62CFDE7917
51E9AE47020000
4BE4B54F040000
000557C3E6831F
000000002F9BAA
00000000000004
ENDCHAR
STARTCHAR equal
ENCODING 61
SWIDTH 602 0
DWIDTH 7 0
BBX 7 4 0 2
BITMAP
67D4D4D4D4D496
1E3C3C3C3C3C2B
23484848484833
63CCCCCCCCCC90
ENDCHAR
STARTCHAR greater
ENCODING 62
SWIDTH 602 0
DWIDTH 7 0
BBX 7 8 0 0
BITMAP
08000000000000
7CBD5104000000
0B62C9E2791500
0000003096EA7D
000001389EE975
106CD3D96E0F00
7AB24602000000
04000000000000
ENDCHAR
STARTCHAR question
ENCODING 63
SWIDTH 602 0
DWIDTH 7 0
BBX 6 11 1 -1
BITMAP
0025543A0100
74E5B2ED9C00
31060038FE0B
0000004AEE05
00002AEA5600
0002D86F0000
0016FF080000
000FA1030000
001178060000
0024FF0C0000
000520020000
ENDCHAR
STARTCHAR at
ENCODING 64
SWIDTH 602 0
DWIDTH 7 0
BBX 7 11 0 -2
BITMAP
000151A9B56901
0084BB4539BA6F
31C90501121CD1
8F5509BEE1C1E3
C01C68A20135E8
CF0A925C0000D9
C4177689001EE7
984E14DBB0C8E4
3FC1020C3F1323
009DA217000900
000374D8E8DC07
ENDCHAR
STARTCHAR A
ENCODING 65
SWIDTH 602 0
DWIDTH 7 0
BBX 8 10 0 0
BITMAP
00000F5822000000
00005BFD92000000
0000A49EDB000000
0002EB2AEF250000
0036E501AE6F0000
007FA2006BB80000
00C9B17492F80B00
14FD939090EA4C00
5BD50000009E9500
A4920000005ADF01
ENDCHAR
STARTCHAR B
ENCODING 66
SWIDTH 602 0
DWIDTH 7 0
BBX 7 10 0 0
BITMAP
035858573C0300
08FFBAAEDAC406
08FF280008EF48
08FF280004ED4C
08FF9B89BDBB09
08FF9F8EB7C514
08FF280000B184
08FF2800008FA4
08FF330D30E071
08F8F8F8E48D06
ENDCHAR
STARTCHAR C
ENCODING 67
SWIDTH 602 0
DWIDTH 7 0
BBX 7 10 0 0
BITMAP
0000023B552E00
0010C7D5AAE247
0097B803000615
03F14800000000
1EFF1E00000000
26FF1600000000
13FF2800000000
00DB6300000000
0066E33105432E
000176E6FED72B
ENDCHAR
STARTCHAR D
ENCODING 68
SWIDTH 602 0
DWIDTH 7 0
BBX 7 10 0 0
BITMAP
125857430A0000
34FFB6D2EC4300
34FF000069EB0A
34FF000004F24C
34FF000000D272
34FF000000CA7A
34FF000000DA69
34FF000013FC35
34FF0B2DB4C201
34FCFCE89C1200
ENDCHAR
STARTCHAR E
ENCODING 69
SWIDTH 602 0
DWIDTH 7 0
BBX 6 10 1 0
BITMAP
4B585858581F
D8D1B8B8B840
D85800000000
D85800000000
D8AF84848417
D8B48C8C8C19
D85800000000
D85800000000
D86310101008
D8FFFFFFFF74
ENDCHAR
STARTCHAR F
ENCODING 70
SWIDTH 602 0
DWIDTH 7 0
BBX 6 10 1 0
BITMAP
39585858582E
A4E1B8B8B85F
A49000000000
A49000000000
A4CC88888814
A4CC88888814
A49000000000
A49000000000
A49000000000
A49000000000
ENDCHAR
STARTCHAR G
ENCODING 71
SWIDTH 602 0
DWIDTH 7 0
BBX 7 10 0 0
BITMAP
00000946511800
002AE3C2B0EC23
01CC8100001814
2BFF1400000000
55EA0000000000
5EE10000C3D062
4BF201002DB978
16FD2A0000A878
009EBF1E10C178
000A99F1FAB923
ENDCHAR
STARTCHAR H
ENCODING 72
SWIDTH 602 0
DWIDTH 7 0
BBX 7 10 0 0
BITMAP
12580000004426
34FF000000C46C
34FF000000C46C
34FF000000C46C
34FF848484E36C
34FF8C8C8CE56C
34FF000000C46C
34FF000000C46C
34FF000000C46C
34FF000000C46C
ENDCHAR
STARTCHAR I
ENCODING 73
SWIDTH 602 0
DWIDTH 7 0
BBX 6 10 1 0
BITMAP
495858585803
99B8FFC7B806
0000FC340000
0000FC340000
0000FC340000
0000FC340000
0000FC340000
0000FC340000
0E10FD411001
D4FFFFFFFF08
ENDCHAR
STARTCHAR J
ENCODING 74
SWIDTH 602 0
DWIDTH 7 0
BBX 6 10 0 0
BITMAP
00004B585833
000098B4E394
000000009C94
000000009C94
000000009C94
000000009C94
000000009D94
01000000A68B
4E691323E55B
33CBFBF5A106
ENDCHAR
STARTCHAR K
ENCODING 75
SWIDTH 602 0
DWIDTH 7 0
BBX 8 10 0 0
BITMAP
12580000002A5101
34FF000026E95600
34FF0017DD6E0000
34FF0CCC89000000
34FFB6DB02000000
34FFBCED53000000
34FF0E63E6100000
34FF0002C6970000
34FF000030FB3B00
34FF0000008FD506
ENDCHAR
STARTCHAR L
ENCODING 76
SWIDTH 602 0
DWIDTH 7 0
BBX 6 10 1 0
BITMAP
412800000000
BC7400000000
BC7400000000
BC7400000000
BC7400000000
BC7400000000
BC7400000000
BC7400000000
BC7D1010100B
BCFFFFFFFFAC
ENDCHAR
STARTCHAR M
ENCODING 77
SWIDTH 602 0
DWIDTH 7 0
BBX 7 10 0 0
BITMAP
2C580D0000523E
80FE5C0026FEB4
80C4AD0079C3B4
8099D009C777B4
8098896DBE64B4
809838F36E64B4
809802A31D64B4
809800000064B4
809800000064B4
809800000064B4
ENDCHAR
STARTCHAR N
ENCODING 78
SWIDTH 602 0
DWIDTH 7 0
BBX 7 10 0 0
BITMAP
11582200004124
30FFA30000BC68
30F9E70F00BC68
30F4986700BC68
30F436CA00BC68
30F401D32CBC68
30F400718EBC68
30F40015E5C268
30F40000ACFB68
30F400004AFF68
ENDCHAR
STARTCHAR O
ENCODING 79
SWIDTH 602 0
DWIDTH 7 0
BBX 7 10 0 0
BITMAP
00002053320000
0053F1AEE68A00
02E35C0023FC22
29FF0F0000D565
46F6000000BB84
4AF1000000B68B
3DFB010000C17D
16FF200001E553
00BE96065EEE0D
0021C5FBDC4300
ENDCHAR
STARTCHAR P
ENCODING 80
SWIDTH 602 0
DWIDTH 7 0
BBX 6 10 1 0
BITMAP
495858450900
D4CCB1DAE21F
D4580004C98F
D458000092AD
D458000ED688
D4E4D5F2CE16
D47D38280100
D45800000000
D45800000000
D15700000000
ENDCHAR
STARTCHAR Q
ENCODING 81
SWIDTH 602 0
DWIDTH 7 0
BBX 7 12 0 -2
BITMAP
00001F53300000
0050F3B9EE7F00
02E25D0031FC1A
28FF0E0000E05A
48F0000000C37A
4FE9000000BA83
46F0000000C27A
26FF0D0000DE5C
01E15B002EFD1D
0055F3B4EB8500
0000245CE36400
000000002D9802
ENDCHAR
STARTCHAR R
ENCODING 82
SWIDTH 602 0
DWIDTH 7 0
BBX 8 10 0 0
BITMAP
105858552A000000
2CFFB7BBF5910000
2CFF090038FF1F00
2CFF0A0006FF3800
2CFF0F096DEB0C00
2CFFFFFFE62C0000
2CFF101BC2860000
2CFF04002DF61800
2CFF040000B88600
2CFF04000048F00E
ENDCHAR
STARTCHAR S
ENCODING 83
SWIDTH 602 0
DWIDTH 7 0
BBX 7 10 0 0
BITMAP
00002454460E00
0075F0B1C2E700
0FFA2900001F00
23FD0D00000000
03D5CF6F2A0000
001483CBFDAB05
0000000023EB53
0000000000BB70
0A88210340F43A
06AAEBFFE26E00
ENDCHAR
STARTCHAR T
ENCODING 84
SWIDTH 602 0
DWIDTH 7 0
BBX 7 10 0 0
BITMAP
40585858585854
85B8B8FEC8B8B0
000000F8380000
000000F8380000
000000F8380000
000000F8380000
000000F8380000
000000F8380000
000000F8380000
000000F8380000
ENDCHAR
STARTCHAR U
ENCODING 85
SWIDTH 602 0
DWIDTH 7 0
BBX 7 10 0 0
BITMAP
10580200004F1B
2CFF040000E44C
2AFF040000E44C
29FF040000E44C
27FF040000E44C
26FF040000E44C
24FF040000E54C
18FF070000E841
01E46A0950F816
003BD3FEDF5500
ENDCHAR
STARTCHAR V
ENCODING 86
SWIDTH 602 0
DWIDTH 7 0
BBX 7 10 0 0
BITMAP
3736000000214B
71C50000008AA8
2BFB0B0000CA62
01E544000EFC1D
009F83004AD600
0059C200899000
0015F709C94900
0000CC4EF50B00
000086C9BD0000
000040FF770000
ENDCHAR
STARTCHAR W
ENCODING 87
SWIDTH 602 0
DWIDTH 7 0
BBX 8 10 0 0
BITMAP
5610000000005312
E24000000007FF1A
BE5C00000021F601
9A7913C83C3ED300
769545F07A5AAF00
52B2778EAE768C00
2ECEA92ED4936800
0BEACE03BEC54500
00E6BD0087FE2100
00C2870050FB0400
ENDCHAR
STARTCHAR X
ENCODING 88
SWIDTH 602 0
DWIDTH 7 0
BBX 8 10 0 0
BITMAP
244D000000274900
15F03E0002CF6B00
0071C8015ED10400
0006D85DE23D0000
00004AFCA3000000
00003EFF92000000
0004D179EC270000
006BD0037CB20000
14EE40000CE94300
99AD0000006CD103
ENDCHAR
STARTCHAR Y
ENCODING 89
SWIDTH 602 0
DWIDTH 7 0
BBX 8 10 0 0
BITMAP
3D33000000205201
54E4080000B48E00
01C86F0039F01300
003EE80BBC770000
0000B3B0E3090000
00002BFF62000000
000000FC34000000
000000FC34000000
000000FC34000000
000000FC34000000
ENDCHAR
STARTCHAR Z
ENCODING 90
SWIDTH 602 0
DWIDTH 7 0
BBX 7 10 0 0
BITMAP
00545858585840
00B0B8B8B8EDAD
0000000026F531
00000001BA8C00
00000055E10C00
00000DE44D0000
00008CAD000000
002CEE1C000000
01C27C1010100E
14FFFFFFFFFFD8
ENDCHAR
STARTCHAR bracketleft
ENCODING 91
SWIDTH 602 0
DWIDTH 7 0
BBX 4 12 2 -2
BITMAP
35BCBC27
48D52809
48CC0000
48CC0000
48CC0000
48CC0000
48CC0000
48CC0000
48CC0000
48CC0000
48D6300A
33B4B425
ENDCHAR
STARTCHAR backslash
ENCODING 92
SWIDTH 602 0
DWIDTH 7 0
BBX 7 12 0 -2
BITMAP
1E460000000000
14F21C00000000
009A8600000000
002BEC0A000000
0000BB66000000
00004BD5010000
000002DA450000
0000006BB50000
0000000CEE2700
000000008B9500
000000001FF111
00000000002C0F
ENDCHAR
STARTCHAR bracketright
ENCODING 93
SWIDTH 602 0
DWIDTH 7 0
BBX 3 12 2 -2
BITMAP
B7BC61
27A284
009084
009084
009084
009084
009084
009084
009084
009084
2FA584
AFB45D
ENDCHAR
STARTCHAR asciicircum
ENCODING 94
SWIDTH 602 0
DWIDTH 7 0
BBX 7 5 0 5
BITMAP
00000557170000
00008EE9C10400
0054D412AA8A00
26D91F0009C44F
13140000000B1B
ENDCHAR
STARTCHAR underscore
ENCODING 95
SWIDTH 602 0
DWIDTH 7 0
BBX 6 2 0 -4
BITMAP
787878787878
080808080808
ENDCHAR
STARTCHAR grave
ENCODING 96
SWIDTH 602 0
DWIDTH 7 0
BBX 4 4 1 7
BITMAP
123D0000
04BB5400
0013CA1A
00000C0A
ENDCHAR
STARTCHAR a
ENCODING 97
SWIDTH 602 0
DWIDTH 7 0
BBX 7 7 0 0
BITMAP
0074E4F5DE5700
004A1D0033F512
0000294D50EA34
00A0D49589F238
1FF0090002F239
1AF4140064FF3A
0079DFCC98E03B
ENDCHAR
STARTCHAR b
ENCODING 98
SWIDTH 602 0
DWIDTH 7 0
BBX 6 10 1 0
BITMAP
851F00000000
E03400000000
E03400000000
E097E7E96400
E0B70729F323
E0520000B768
E03E0000A37A
E0520000B766
E0B60728F221
BA8AE7E96200
ENDCHAR
STARTCHAR c
ENCODING 99
SWIDTH 602 0
DWIDTH 7 0
BBX 6 7 1 0
BITMAP
0173E3F1CF20
5DDF25003120
BA6D00000000
D14F00000000
B96E00000000
5AE128013120
0175E5F5D120
ENDCHAR
STARTCHAR d
ENCODING 100
SWIDTH 602 0
DWIDTH 7 0
BBX 7 10 0 0
BITMAP
0000000000960F
0000000000FC18
0000000000FB18
003BDBED92FA18
04E2570187FF18
31ED01001CFF18
42DA000007FF18
2DED01001CFF18
03E0560187FF18
003CDCED8DD114
ENDCHAR
STARTCHAR e
ENCODING 101
SWIDTH 602 0
DWIDTH 7 0
BBX 7 7 0 0
BITMAP
001CB6EEE56600
01CA84031DE62E
29FB1F1A1BA875
41F9C0C0C0C065
29F20400000000
01C98406034124
001CB2F0F0C526
ENDCHAR
STARTCHAR f
ENCODING 102
SWIDTH 602 0
DWIDTH 7 0
BBX 6 10 1 0
BITMAP
000043B1BC2B
0004EF613C0E
0018FD010000
C1E7FFE4E436
0018FC000000
0018FC000000
0018FC000000
0018FC000000
0018FC000000
0018FC000000
ENDCHAR
STARTCHAR g
ENCODING 103
SWIDTH 602 0
DWIDTH 7 0
BBX 7 10 0 -3
BITMAP
0038D6CD9EF620
03E1500060FF20
2EF402000AFF20
3FE6000000F920
28F9060013FF20
02D971017FFF20
0033DAF38AF91E
000000000FFC09
005359399FAC00
003FA5B5850D00
ENDCHAR
STARTCHAR h
ENCODING 104
SWIDTH 602 0
DWIDTH 7 0
BBX 6 10 1 0
BITMAP
9F2D00000000
D83C00000000
D83C00000000
D881E3F67500
D8B30C41F90A
D84B0000F125
D83C0000EC28
D83C0000EC28
D83C0000EC28
D83C0000EC28
ENDCHAR
STARTCHAR i
ENCODING 105
SWIDTH 602 0
DWIDTH 7 0
BBX 6 10 1 0
BITMAP
000099320000
000099320000
000000000000
72E4FB440000
0000D0440000
0000D0440000
0000D0440000
0000D0440000
0000D0440000
DAE4FBECE45D
ENDCHAR
STARTCHAR j
ENCODING 106
SWIDTH 602 0
DWIDTH 7 0
BBX 4 13 1 -3
BITMAP
00005E6D
00005E6D
00000000
52E4F294
00008094
00008094
00007F94
00007F94
00007E94
00007D94
0000858E
4552DC55
9CAB7001
ENDCHAR
STARTCHAR k
ENCODING 107
SWIDTH 602 0
DWIDTH 7 0
BBX 7 10 1 0
BITMAP
735E0000000000
9C800000000000
9C800000000000
9C800037E33600
9C8033E33B0000
9CADED4F000000
9CF4BEA6000000
9C8511E6560000
9C80004BEC1900
9C8000009EB401
ENDCHAR
STARTCHAR l
ENCODING 108
SWIDTH 602 0
DWIDTH 7 0
BBX 7 10 0 0
BITMAP
0DCCCC99000000
021865C0000000
000054C0000000
000054C0000000
000054C0000000
000054C0000000
000054C0000000
000054C2000000
000033ED150000
00000198FAFC0C
ENDCHAR
STARTCHAR m
ENCODING 109
SWIDTH 602 0
DWIDTH 7 0
BBX 7 7 0 0
BITMAP
58DCD2C4B7E435
58BF03F13D7588
58A600DB265F9D
58A400D8245CA0
58A400D8245CA0
58A400D8245CA0
58A400D8245CA0
ENDCHAR
STARTCHAR n
ENCODING 110
SWIDTH 602 0
DWIDTH 7 0
BBX 6 7 1 0
BITMAP
D88ECBEC7800
D8A0012AFA0B
D8470000F026
D83C0000EC28
D83C0000EC28
D83C0000EC28
D83C0000EC28
ENDCHAR
STARTCHAR o
ENCODING 111
SWIDTH 602 0
DWIDTH 7 0
BBX 7 7 0 0
BITMAP
002BCAF3DE4F00
01D17F0147F616
1DFF0E0000D256
2EF6000000BB6B
1BFF0E0000D257
01CF7C0144F616
002CCCF0DF5000
ENDCHAR
STARTCHAR p
ENCODING 112
SWIDTH 602 0
DWIDTH 7 0
BBX 6 10 1 -3
BITMAP
E0A4CAD96300
E0A30118EE21
E04B0000B464
E03A0000A376
E0530000BB62
E0BC0931F41E
E094EDEB6000
E03400000000
E03400000000
932300000000
ENDCHAR
STARTCHAR q
ENCODING 113
SWIDTH 602 0
DWIDTH 7 0
BBX 7 10 0 -3
BITMAP
0028D1F79BC529
00C57F037EFF30
12FF0F000EFF30
2BF6000000F330
21FD050004FC30
02E8460044FF30
0062EEABD0F230
00002D5313E830
0000000000E830
0000000000C429
ENDCHAR
STARTCHAR r
ENCODING 114
SWIDTH 602 0
DWIDTH 7 0
BBX 5 7 2 0
BITMAP
D86FD0E8A9
D8C6140026
D85A000000
D83D000000
D83C000000
D83C000000
D83C000000
ENDCHAR
STARTCHAR s
ENCODING 115
SWIDTH 602 0
DWIDTH 7 0
BBX 6 7 1 0
BITMAP
24C8EFEB8500
A28C01083500
A0AD21010000
1BA5E7E86600
00000153F905
41110043EF03
80E8EDDA4C00
ENDCHAR
STARTCHAR t
ENCODING 116
SWIDTH 602 0
DWIDTH 7 0
BBX 7 9 0 0
BITMAP
00007C98000000
00007C98000000
36E4F2F5E4E40B
00007C98000000
00007C98000000
00007C98000000
00007C99000000
000069C1030000
000014C7F1EC08
ENDCHAR
STARTCHAR u
ENCODING 117
SWIDTH 602 0
DWIDTH 7 0
BBX 6 7 1 0
BITMAP
DC380000F424
DC380000F424
DC380000F424
DC380000F524
DA3A0004FC24
B8710057FF24
3BE3D28BF524
ENDCHAR
STARTCHAR v
ENCODING 118
SWIDTH 602 0
DWIDTH 7 0
BBX 7 7 0 0
BITMAP
3EDE010000A679
03E7310008F224
009484004DCF00
003FD700A07A00
0003E82FEE2500
000095C1D00000
00003FFF7B0000
ENDCHAR
STARTCHAR w
ENCODING 119
SWIDTH 602 0
DWIDTH 7 0
BBX 8 7 0 0
BITMAP
E42A00000002F11C
AC5D00000026E400
749106EB2E5AAC00
3CC43DCF728D7400
0AF0834BB0C13C00
00CCDA06B5EE0A00
0094B3007BCC0000
ENDCHAR
STARTCHAR x
ENCODING 120
SWIDTH 602 0
DWIDTH 7 0
BBX 7 7 0 0
BITMAP
14E43B0016E637
0047DB0CB07F00
000091CFC80400
00002BFF660000
0004C692E71900
007EB6017FB801
37EA1A0005CC6E
ENDCHAR
STARTCHAR y
ENCODING 121
SWIDTH 602 0
DWIDTH 7 0
BBX 7 10 0 -3
BITMAP
35EA0400009192
01D7490003E735
0079A40043D801
001EF20B9C7C00
0000BD60EE2100
00005FEBC30000
00000DF6680000
000019F6130000
0049AFA3000000
00998F12000000
ENDCHAR
STARTCHAR z
ENCODING 122
SWIDTH 602 0
DWIDTH 7 0
BBX 6 7 1 0
BITMAP
9FECECEEFF18
0000007CBE03
000040E51800
0016E4430000
03BA80000000
7CBE03000000
D0F6F0F0F017
ENDCHAR
STARTCHAR braceleft
ENCODING 123
SWIDTH 602 0
DWIDTH 7 0
BBX 5 13 1 -3
BITMAP
00002D9BA5
0000C78F32
0000E73600
0000E83400
0001F02F00
2B73E70A00
77D7A50100
000BF92800
0000E93800
0000E83800
0000DD4E00
000076F0C1
0000000A19
ENDCHAR
STARTCHAR bar
ENCODING 124
SWIDTH 602 0
DWIDTH 7 0
BBX 2 14 3 -4
BITMAP
B617
E41C
E41C
E41C
E41C
E41C
E41C
E41C
E41C
E41C
E41C
E41C
E41C
0801
ENDCHAR
STARTCHAR braceright
ENCODING 125
SWIDTH 602 0
DWIDTH 7 0
BBX 5 13 1 -3
BITMAP
7FA54A0000
2361F50600
0001FE1A00
0000FC1C00
0000F92300
0000B89B3C
000072E198
0000F23500
0000FF1D00
0001FF1C00
001AFF0F00
95EDA30000
110B000000
ENDCHAR
STARTCHAR asciitilde
ENCODING 126
SWIDTH 602 0
DWIDTH 7 0
BBX 7 2 0 3
BITMAP
24B4DB9E3A336E
55593980DDDC58
ENDCHAR
STARTCHAR nonbreakingspace
ENCODING 160
SWIDTH 602 0
DWIDTH 7 0
BBX 1 1 0 0
BITMAP
00
ENDCHAR
STARTCHAR exclamdown
ENCODING 161
SWIDTH 602 0
DWIDTH 7 0
BBX 2 10 3 0
BITMAP
5614
F838
3E0E
4A09
E724
F433
F838
F838
F838
F838
ENDCHAR
STARTCHAR cent
ENCODING 162
SWIDTH 602 0
DWIDTH 7 0
BBX 6 11 1 -2
BITMAP
0000007A0000
000000980000
006CE1EFD529
44E51B9C0B10
9F85009C0000
B56B009C0000
9A8D009C0000
3BED2D9C1A15
005FE1F9DC25
0000009C0000
0000007D0000
ENDCHAR
STARTCHAR sterling
ENCODING 163
SWIDTH 602 0
DWIDTH 7 0
BBX 7 10 0 0
BITMAP
00000018524409
000034F3B1B666
0000A19F000004
0000C26C000000
0000C468000000
00BCF3DFC87400
0017CA77180E00
0000C468000000
020CC7700C0C07
28FFFFFFFFFF8C
ENDCHAR
STARTCHAR currency
ENCODING 164
SWIDTH 602 0
DWIDTH 7 0
BBX 6 6 1 1
BITMAP
6925130A5E33
2FE2BCCCC208
12B30010B500
14B60112B100
2EE3C0C8C30B
682210075A2D
ENDCHAR
STARTCHAR yen
ENCODING 165
SWIDTH 602 0
DWIDTH 7 0
BBX 8 10 0 0
BITMAP
3D33000000205101
56E4080000B48D00
02CC6F0039EE1200
0044E90BBC730000
3AB0ECB0F4B66100
00002CFF61000000
3AB0B0FFC1B06100
000000FC34000000
000000FC34000000
000000FC34000000
ENDCHAR
STARTCHAR brokenbar
ENCODING 166
SWIDTH 602 0
DWIDTH 7 0
BBX 2 12 3 -3
BITMAP
DD1C
E41C
E41C
E41C
B316
0000
8110
E41C
E41C
E41C
E41C
2B06
ENDCHAR
STARTCHAR section
ENCODING 167
SWIDTH 602 0
DWIDTH 7 0
BBX 6 12 1 -2
BITMAP
001B53490E00
2CED96A66F00
6BB700000100
20F37D060000
779FB0D12900
CF27016CE403
8DB41003F50C
037FDFAB8C00
00002CE06600
02000076AA00
56BC9AE95000
04354E220000
ENDCHAR
STARTCHAR dieresis
ENCODING 168
SWIDTH 602 0
DWIDTH 7 0
BBX 5 2 1 8
BITMAP
17B80C9940
128C097431
ENDCHAR
STARTCHAR copyright
ENCODING 169
SWIDTH 602 0
DWIDTH 7 0
BBX 8 9 0 0
BITMAP
00035080640E0000
08A5602749B02400
813B9FA6A41BA700
9F627A0000007F1F
9C81510000006934
A345A9060E049410
4F78579F92418B00
0066A97C9A910600
0000082A11000000
ENDCHAR
STARTCHAR ordfeminine
ENCODING 170
SWIDTH 602 0
DWIDTH 7 0
BBX 5 8 1 2
BITMAP
012E552C00
07946AC54A
003A749F95
3EC34A719A
5E9A069E97
0CA0BD6E62
2B9090905A
1138383823
ENDCHAR
STARTCHAR guillemotleft
ENCODING 171
SWIDTH 602 0
DWIDTH 7 0
BBX 7 7 0 0
BITMAP
00000632002711
0009B55B2EDA12
0CBE7735D93300
31E31E83AC0300
0049D72496A704
00003F6701891C
00000002000102
ENDCHAR
STARTCHAR logicalnot
ENCODING 172
SWIDTH 602 0
DWIDTH 7 0
BBX 7 4 0 2
BITMAP
3368686868684A
54ACACACACC4B4
000000000048B4
00000000003179
ENDCHAR
STARTCHAR sfthyphen
ENCODING 173
SWIDTH 602 0
DWIDTH 7 0
BBX 4 2 2 3
BITMAP
08080802
E8FFFF24
ENDCHAR
STARTCHAR registered
ENCODING 174
SWIDTH 602 0
DWIDTH 7 0
BBX 8 9 0 0
BITMAP
00034F7C5E0A0000
0AA7612B4FAF1D00
8430BD8C9D1CA100
9E00C000A52A8915
9900D3A6A2017029
A301C403BE169B0B
5B6E59002E758700
0071A5789A900500
00000B2E13000000
ENDCHAR
STARTCHAR macron
ENCODING 175
SWIDTH 602 0
DWIDTH 7 0
BBX 5 2 1 8
BITMAP
1590909034
0D5C5C5C22
ENDCHAR
STARTCHAR degree
ENCODING 176
SWIDTH 602 0
DWIDTH 7 0
BBX 5 5 1 5
BITMAP
0010512000
08CB83CC29
3796004C76
14CF3CA647
003B965A00
ENDCHAR
STARTCHAR plusminus
ENCODING 177
SWIDTH 602 0
DWIDTH 7 0
BBX 7 8 0 0
BITMAP
0000004D0A0000
000000E01C0000
234848E95D4833
63CCCCFAD2CC90
000000E01C0000
000000C4190000
0810101010100C
7CFFFFFFFFFFB4
ENDCHAR
STARTCHAR twosuperior
ENCODING 178
SWIDTH 602 0
DWIDTH 7 0
BBX 5 6 1 4
BITMAP
0133531800
0D8263D911
000001CA1C
0000737B00
00668C0100
19EEB6B62C
ENDCHAR
STARTCHAR threesuperior
ENCODING 179
SWIDTH 602 0
DWIDTH 7 0
BBX 5 7 1 3
BITMAP
0036552300
007360D626
00062FC227
00138DBB18
0000008D61
10B6A9C91A
00040D0100
ENDCHAR
STARTCHAR acute
ENCODING 180
SWIDTH 602 0
DWIDTH 7 0
BBX 4 4 2 7
BITMAP
00002D22
0026D817
05C13400
05120000
ENDCHAR
STARTCHAR mu
ENCODING 181
SWIDTH 602 0
DWIDTH 7 0
BBX 6 10 1 -3
BITMAP
E0340000F420
E0340000F420
E0340000F420
DF340000F520
DF3A0004FC20
DE940467FF37
DEA5F9C1AACE
DE2000000000
DD2000000000
911500000000
ENDCHAR
STARTCHAR paragraph
ENCODING 182
SWIDTH 602 0
DWIDTH 7 0
BBX 7 12 0 -2
BITMAP
00013758585803
02AEFFFF71E108
43FFFFFF14CC08
5CFFFFFF14CC08
20FAFFFF14CC08
0046C5F914CC08
000000BC14CC08
000000BC14CC08
000000BC14CC08
000000BC14CC08
000000BC14CC08
0000002A052D02
ENDCHAR
STARTCHAR periodcentered
ENCODING 183
SWIDTH 602 0
DWIDTH 7 0
BBX 3 3 2 3
BITMAP
0F6824
24FF58
12802C
ENDCHAR
STARTCHAR cedilla
ENCODING 184
SWIDTH 602 0
DWIDTH 7 0
BBX 3 3 2 -3
BITMAP
004F75
4371B2
437423
ENDCHAR
STARTCHAR onesuperior
ENCODING 185
SWIDTH 602 0
DWIDTH 7 0
BBX 4 6 2 4
BITMAP
2F551000
86CF2C00
00AC2C00
00AC2C00
00AC2C00
9AD3B940
ENDCHAR
STARTCHAR ordmasculine
ENCODING 186
SWIDTH 602 0
DWIDTH 7 0
BBX 5 8 1 2
BITMAP
0017532800
1FD36FC74B
7D6F0039B4
8A5D0027C3
4DAB047B88
0174BE950B
338888884F
173C3C3C23
ENDCHAR
STARTCHAR guillemotright
ENCODING 187
SWIDTH 602 0
DWIDTH 7 0
BBX 6 7 1 0
BITMAP
37001D1B0000
C15723D52100
15CC6144D827
0073BF08BF6B
70C318BA7F01
9A0B34720000
020002000000
ENDCHAR
STARTCHAR onequarter
ENCODING 188
SWIDTH 602 0
DWIDTH 7 0
BBX 7 13 0 -2
BITMAP
1A544200000000
4485A800000000
0030A800000000
0030A800000000
0030A800000000
45B8CB95063D2F
022F72AEB27A24
8C884409386500
0000000AAFB800
000000833FB800
00002DA13DC512
00002F8892DF38
000000000E7F00
ENDCHAR
STARTCHAR onehalf
ENCODING 189
SWIDTH 602 0
DWIDTH 7 0
BBX 7 13 0 -2
BITMAP
1A544200000000
4485A800000000
0030A800000000
0030A800000000
0030A800000000
45B8CB95063D2F
022F72AEB27A24
8C88446C996401
0000004018B547
0000000001BB2F
00000000866C00
0000007A7F0604
000000A2ACAC46
ENDCHAR
STARTCHAR threequarters
ENCODING 190
SWIDTH 602 0
DWIDTH 7 0
BBX 7 13 0 -2
BITMAP
13696F1E000000
1D4852D7000000
002265AF000000
002F7FAB010000
020004E30D0000
4DB4C17A04392D
012B6EACB57F27
908F4B0D335F00
00000008ADB800
0000007F41B800
00002A9E36C30F
0000318C96E039
000000000F8500
ENDCHAR
STARTCHAR questiondown
ENCODING 191
SWIDTH 602 0
DWIDTH 7 0
BBX 5 10 1 0
BITMAP
0000482100
0000D06000
00002E1500
0000AE4C00
0000D64E00
006EE00C00
54E7260000
C869000000
B8A1092877
2BCFFEDF6D
ENDCHAR
STARTCHAR Agrave
ENCODING 192
SWIDTH 602 0
DWIDTH 7 0
BBX 8 12 0 0
BITMAP
0000648700000000
0000019423000000
00000F5822000000
00005BFD92000000
0000A49EDB000000
0002EB2AEF250000
0036E501AE6F0000
007FA2006BB80000
00C9B17492F80B00
14FD939090EA4C00
5BD50000009E9500
A4920000005ADF01
ENDCHAR
STARTCHAR Aacute
ENCODING 193
SWIDTH 602 0
DWIDTH 7 0
BBX 8 12 0 0
BITMAP
0000005699010000
000009A310000000
00000F5822000000
00005BFD92000000
0000A49EDB000000
0002EB2AEF250000
0036E501AE6F0000
007FA2006BB80000
00C9B17492F80B00
14FD939090EA4C00
5BD50000009E9500
A4920000005ADF01
ENDCHAR
STARTCHAR Acircumflex
ENCODING 194
SWIDTH 602 0
DWIDTH 7 0
BBX 8 12 0 0
BITMAP
000040CE76000000
000697108F1D0000
00000F5822000000
00005BFD92000000
0000A49EDB000000
0002EB2AEF250000
0036E501AE6F0000
007FA2006BB80000
00C9B17492F80B00
14FD939090EA4C00
5BD50000009E9500
A4920000005ADF01
ENDCHAR
STARTCHAR Atilde
ENCODING 195
SWIDTH 602 0
DWIDTH 7 0
BBX 8 12 0 0
BITMAP
000DAE9860600000
00274B3D83140000
00000F5822000000
00005BFD92000000
0000A49EDB000000
0002EB2AEF250000
0036E501AE6F0000
007FA2006BB80000
00C9B17492F80B00
14FD939090EA4C00
5BD50000009E9500
A4920000005ADF01
ENDCHAR
STARTCHAR Adieresis
ENCODING 196
SWIDTH 602 0
DWIDTH 7 0
BBX 8 12 0 0
BITMAP
0017B40C963E0000
0012900978320000
00000F5822000000
00005BFD92000000
0000A49EDB000000
0002EB2AEF250000
0036E501AE6F0000
007FA2006BB80000
00C9B17492F80B00
14FD939090EA4C00
5BD50000009E9500
A4920000005ADF01
ENDCHAR
STARTCHAR Aring
ENCODING 197
SWIDTH 602 0
DWIDTH 7 0
BBX 8 12 0 0
BITMAP
00005DC68B010000
0000C6039B270000
0000C44CBF170000
000067FD9F000000
0000A5A0DD010000
0003EC2CEF260000
0037E501AE700000
0080A2006BB90000
00C9B17492F90B00
14FD939090EA4C00
5BD50000009E9600
A4920000005ADF01
ENDCHAR
STARTCHAR AE
ENCODING 198
SWIDTH 602 0
DWIDTH 7 0
BBX 7 10 0 0
BITMAP
00003958585847
0000D0D1F4B893
0014E945D40000
0054AC44D40000
00966D44EB8453
00D82E44ED8C58
1BFD769AD40000
5CDB9CB7D40000
9E730044D7100F
E0340044FFFFEC
ENDCHAR
STARTCHAR Ccedilla
ENCODING 199
SWIDTH 602 0
DWIDTH 7 0
BBX 7 13 0 -3
BITMAP
0000023B552E00
0010C7D5AAE247
0097B803000615
03F14800000000
1EFF1E00000000
27FF1600000000
16FF2800000000
01DD6300000000
0069E33105432E
000176E6FED72B
00000000AA1900
00000C5ABA4900
0000086E620400
ENDCHAR
STARTCHAR Egrave
ENCODING 200
SWIDTH 602 0
DWIDTH 7 0
BBX 6 12 1 0
BITMAP
004CA0010000
000083370000
4B585858581F
D8D1B8B8B840
D85800000000
D85800000000
D8AF84848417
D8B48C8C8C19
D85800000000
D85800000000
D86310101008
D8FFFFFFFF74
ENDCHAR
STARTCHAR Eacute
ENCODING 201
SWIDTH 602 0
DWIDTH 7 0
BBX 6 12 1 0
BITMAP
00003DAF0400
00039D1C0000
4B585858581F
D8D1B8B8B840
D85800000000
D85800000000
D8AF84848417
D8B48C8C8C19
D85800000000
D85800000000
D86310101008
D8FFFFFFFF74
ENDCHAR
STARTCHAR Ecircumflex
ENCODING 202
SWIDTH 602 0
DWIDTH 7 0
BBX 6 12 1 0
BITMAP
002CC98C0000
02921A7F2E00
4B585858581F
D8D1B8B8B840
D85800000000
D85800000000
D8AF84848417
D8B48C8C8C19
D85800000000
D85800000000
D86310101008
D8FFFFFFFF74
ENDCHAR
STARTCHAR Edieresis
ENCODING 203
SWIDTH 602 0
DWIDTH 7 0
BBX 6 12 1 0
BITMAP
06B41F855200
0590196A4200
4B585858581F
D8D1B8B8B840
D85800000000
D85800000000
D8AF84848417
D8B48C8C8C19
D85800000000
D85800000000
D86310101008
D8FFFFFFFF74
ENDCHAR
STARTCHAR Igrave
ENCODING 204
SWIDTH 602 0
DWIDTH 7 0
BBX 6 12 1 0
BITMAP
006487000000
000194230000
495858585803
99B8FFC7B806
0000FC340000
0000FC340000
0000FC340000
0000FC340000
0000FC340000
0000FC340000
0E10FD411001
D4FFFFFFFF08
ENDCHAR
STARTCHAR Iacute
ENCODING 205
SWIDTH 602 0
DWIDTH 7 0
BBX 6 12 1 0
BITMAP
000056990100
0009A3100000
495858585803
99B8FFC7B806
0000FC340000
0000FC340000
0000FC340000
0000FC340000
0000FC340000
0000FC340000
0E10FD411001
D4FFFFFFFF08
ENDCHAR
STARTCHAR Icircumflex
ENCODING 206
SWIDTH 602 0
DWIDTH 7 0
BBX 6 12 1 0
BITMAP
0040CE760000
0697108F1D00
495858585803
99B8FFC7B806
0000FC340000
0000FC340000
0000FC340000
0000FC340000
0000FC340000
0000FC340000
0E10FD411001
D4FFFFFFFF08
ENDCHAR
STARTCHAR Idieresis
ENCODING 207
SWIDTH 602 0
DWIDTH 7 0
BBX 6 12 1 0
BITMAP
17B40C963E00
129009783200
495858585803
99B8FFC7B806
0000FC340000
0000FC340000
0000FC340000
0000FC340000
0000FC340000
0000FC340000
0E10FD411001
D4FFFFFFFF08
ENDCHAR
STARTCHAR Eth
ENCODING 208
SWIDTH 602 0
DWIDTH 7 0
BBX 7 10 0 0
BITMAP
1458543A060000
38FFBAD7E53A00
38FC000070E406
38FC000006F642
7FFE582F00D669
A2FF985100CE72
38FC000000DE60
38FC000015FD2D
38FD092AB4BC00
38FFFFEB9C1100
ENDCHAR
STARTCHAR Ntilde
ENCODING 209
SWIDTH 602 0
DWIDTH 7 0
BBX 7 12 0 0
BITMAP
0019B58B6F4A00
00373B4A7F0B00
11582200004124
30FFA30000BC68
30F9E70F00BC68
30F4986700BC68
30F436CA00BC68
30F401D32CBC68
30F400718EBC68
30F40015E5C268
30F40000ACFB68
30F400004AFF68
ENDCHAR
STARTCHAR Ograve
ENCODING 210
SWIDTH 602 0
DWIDTH 7 0
BBX 7 12 0 0
BITMAP
00005E65000000
000007B6230000
00002053320000
0053F1AEE68A00
02E35C0023FC22
29FF0F0000D565
46F6000000BB84
4AF1000000B68B
3DFB010000C17D
16FF200001E553
00BE96065EEE0D
0021C5FBDC4300
ENDCHAR
STARTCHAR Oacute
ENCODING 211
SWIDTH 602 0
DWIDTH 7 0
BBX 7 12 0 0
BITMAP
0000003D8A0100
000009BC1E0000
00002053320000
0053F1AEE68A00
02E35C0023FC22
29FF0F0000D565
46F6000000BB84
4AF1000000B68B
3DFB010000C17D
16FF200001E553
00BE96065EEE0D
0021C5FBDC4300
ENDCHAR
STARTCHAR Ocircumflex
ENCODING 212
SWIDTH 602 0
DWIDTH 7 0
BBX 7 12 0 0
BITMAP
00002AB7560000
0006AD24AE1D00
00002053320000
0053F1AEE68A00
02E35C0023FC22
29FF0F0000D565
46F6000000BB84
4AF1000000B68B
3DFB010000C17D
16FF200001E553
00BE96065EEE0D
0021C5FBDC4300
ENDCHAR
STARTCHAR Otilde
ENCODING 213
SWIDTH 602 0
DWIDTH 7 0
BBX 7 12 0 0
BITMAP
00068C743C5300
002D6F65AB2300
00002053320000
0053F1AEE68A00
02E35C0023FC22
29FF0F0000D565
46F6000000BB84
4AF1000000B68B
3DFB010000C17D
16FF200001E553
00BE96065EEE0D
0021C5FBDC4300
ENDCHAR
STARTCHAR Odieresis
ENCODING 214
SWIDTH 602 0
DWIDTH 7 0
BBX 7 12 0 0
BITMAP
00129009783200
0017B80C994000
00002053320000
0053F1AEE68A00
02E35C0023FC22
29FF0F0000D565
46F6000000BB84
4AF1000000B68B
3DFB010000C17D
16FF200001E553
00BE96065EEE0D
0021C5FBDC4300
ENDCHAR
STARTCHAR multiply
ENCODING 215
SWIDTH 602 0
DWIDTH 7 0
BBX 7 6 0 1
BITMAP
05AA1B0007A41E
0077D517ACAC04
000086F1BA0700
00018DEEBE0800
007FD214A8B104
05A31900069E1B
ENDCHAR
STARTCHAR Oslash
ENCODING 216
SWIDTH 602 0
DWIDTH 7 0
BBX 8 11 0 -1
BITMAP
0000205332005401
0051F1ADE4B29800
02E15E0034FF2C00
26FF1700A5F06400
45FC01548FBB8000
4CF517C30AB68700
3FF8AB3700C27900
1EFF860001E75000
19FA8D0862EE0C00
AA5CCCFDDB430000
1300000000000000
ENDCHAR
STARTCHAR Ugrave
ENCODING 217
SWIDTH 602 0
DWIDTH 7 0
BBX 7 12 0 0
BITMAP
00006C80000000
0000039A1F0000
10580200004F1B
2CFF040000E44C
2AFF040000E44C
29FF040000E44C
27FF040000E44C
26FF040000E44C
24FF040000E54C
18FF070000E841
01E46A0950F816
003BD3FEDF5500
ENDCHAR
STARTCHAR Uacute
ENCODING 218
SWIDTH 602 0
DWIDTH 7 0
BBX 7 12 0 0
BITMAP
000000608F0000
00000CA20B0000
10580200004F1B
2CFF040000E44C
2AFF040000E44C
29FF040000E44C
27FF040000E44C
26FF040000E44C
24FF040000E54C
18FF070000E841
01E46A0950F816
003BD3FEDF5500
ENDCHAR
STARTCHAR Ucircumflex
ENCODING 219
SWIDTH 602 0
DWIDTH 7 0
BBX 7 12 0 0
BITMAP
00004BCE6B0000
0009990E921700
10580200004F1B
2CFF040000E44C
2AFF040000E44C
29FF040000E44C
27FF040000E44C
26FF040000E44C
24FF040000E54C
18FF070000E841
01E46A0950F816
003BD3FEDF5500
ENDCHAR
STARTCHAR Udieresis
ENCODING 220
SWIDTH 602 0
DWIDTH 7 0
BBX 7 12 0 0
BITMAP
001FB4039E3900
001990037E2D00
10580200004F1B
2CFF040000E44C
2AFF040000E44C
29FF040000E44C
27FF040000E44C
26FF040000E44C
24FF040000E54C
18FF070000E841
01E46A0950F816
003BD3FEDF5500
ENDCHAR
STARTCHAR Yacute
ENCODING 221
SWIDTH 602 0
DWIDTH 7 0
BBX 8 12 0 0
BITMAP
0000005699010000
000009A310000000
3D33000000205201
54E4080000B48E00
01C86F0039F01300
003EE80BBC770000
0000B3B0E3090000
00002BFF62000000
000000FC34000000
000000FC34000000
000000FC34000000
000000FC34000000
ENDCHAR
STARTCHAR Thorn
ENCODING 222
SWIDTH 602 0
DWIDTH 7 0
BBX 6 10 1 0
BITMAP
492000000000
D45C00000000
D4C8A89C5901
D49D6582F574
D45C000086C5
D45C000083C7
D4955976F17B
D4CDB0A66403
D45C00000000
D15B00000000
ENDCHAR
STARTCHAR germandbls
ENCODING 223
SWIDTH 602 0
DWIDTH 7 0
BBX 6 10 1 0
BITMAP
1087B18E1400
A8B4439AB200
E53D014FF600
E43485A21D00
E434E6290000
E434B0BC1800
E4340B96E725
E4340000919B
E43E02008C9F
E47EE1D6C522
ENDCHAR
STARTCHAR agrave
ENCODING 224
SWIDTH 602 0
DWIDTH 7 0
BBX 7 11 0 0
BITMAP
00123D00000000
0004BB54000000
000013CA1A0000
0000000C0A0000
0074E4F5DE5700
004A1D0033F512
0000294D50EA34
00A0D49589F238
1FF0090002F239
1AF4140064FF3A
0079DFCC98E03B
ENDCHAR
STARTCHAR aacute
ENCODING 225
SWIDTH 602 0
DWIDTH 7 0
BBX 7 11 0 0
BITMAP
000000002D2200
00000026D81700
000005C1340000
00000512000000
0074E4F5DE5700
004A1D0033F512
0000294D50EA34
00A0D49589F238
1FF0090002F239
1AF4140064FF3A
0079DFCC98E03B
ENDCHAR
STARTCHAR acircumflex
ENCODING 226
SWIDTH 602 0
DWIDTH 7 0
BBX 7 11 0 0
BITMAP
0000003D090000
00004ADF830000
000AC414B62600
00060F00090B00
0074E4F5DE5700
004A1D0033F512
0000294D50EA34
00A0D49589F238
1FF0090002F239
1AF4140064FF3A
0079DFCC98E03B
ENDCHAR
STARTCHAR atilde
ENCODING 227
SWIDTH 602 0
DWIDTH 7 0
BBX 7 10 0 0
BITMAP
0010CBA54F7500
00385F55BD2200
00000000000000
0074E4F5DE5700
004A1D0033F512
0000294D50EA34
00A0D49589F238
1FF0090002F239
1AF4140064FF3A
0079DFCC98E03B
ENDCHAR
STARTCHAR adieresis
ENCODING 228
SWIDTH 602 0
DWIDTH 7 0
BBX 7 10 0 0
BITMAP
0017B80C994000
00128C09743100
00000000000000
0074E4F5DE5700
004A1D0033F512
0000294D50EA34
00A0D49589F238
1FF0090002F239
1AF4140064FF3A
0079DFCC98E03B
ENDCHAR
STARTCHAR aring
ENCODING 229
SWIDTH 602 0
DWIDTH 7 0
BBX 7 12 0 0
BITMAP
000004380F0000
0000A894C60A00
0000C1008C3200
00009AACC30700
00000122060000
0074E4F5DE5700
004A1D0033F512
0000294D50EA34
00A0D49589F238
1FF0090002F239
1AF4140064FF3A
0079DFCC98E03B
ENDCHAR
STARTCHAR ae
ENCODING 230
SWIDTH 602 0
DWIDTH 7 0
BBX 8 7 0 0
BITMAP
3EE1F093DCED6600
1C0E13EE5C20E000
000213CE3F14F103
3AE1D0F5D0C8C807
B05600D427000000
B25D0CF365002E00
40E6E674D4EDAA00
ENDCHAR
STARTCHAR ccedilla
ENCODING 231
SWIDTH 602 0
DWIDTH 7 0
BBX 6 10 1 -3
BITMAP
0173E3F1CF20
5DDF25003120
BA6D00000000
D14F00000000
B96E00000000
5AE128013120
0175E5F5D120
000000A71D00
00085BB54E00
00066D640500
ENDCHAR
STARTCHAR egrave
ENCODING 232
SWIDTH 602 0
DWIDTH 7 0
BBX 7 11 0 0
BITMAP
000C4201000000
0001AA69000000
00000BC7280000
0000000A0C0000
001CB6EEE56600
01CA84031DE62E
29FB1F1A1BA875
41F9C0C0C0C065
29F20400000000
01C98406034124
001CB2F0F0C526
ENDCHAR
STARTCHAR eacute
ENCODING 233
SWIDTH 602 0
DWIDTH 7 0
BBX 7 11 0 0
BITMAP
00000000282700
0000001AD92200
000002B5430000
00000314000000
001CB6EEE56600
01CA84031DE62E
29FB1F1A1BA875
41F9C0C0C0C065
29F20400000000
01C98406034124
001CB2F0F0C526
ENDCHAR
STARTCHAR ecircumflex
ENCODING 234
SWIDTH 602 0
DWIDTH 7 0
BBX 7 11 0 0
BITMAP
000000380E0000
000037DD970000
0003BD1DA83600
00041100070D00
001CB6EEE56600
01CA84031DE62E
29FB1F1A1BA875
41F9C0C0C0C065
29F20400000000
01C98406034124
001CB2F0F0C526
ENDCHAR
STARTCHAR edieresis
ENCODING 235
SWIDTH 602 0
DWIDTH 7 0
BBX 7 10 0 0
BITMAP
0009B81A8A5100
00078C14693E00
00000000000000
001CB6EEE56600
01CA84031DE62E
29FB1F1A1BA875
41F9C0C0C0C065
29F20400000000
01C98406034124
001CB2F0F0C526
ENDCHAR
STARTCHAR igrave
ENCODING 236
SWIDTH 602 0
DWIDTH 7 0
BBX 6 11 1 0
BITMAP
123D00000000
04BB54000000
0013CA1A0000
00000C0A0000
72E4FB440000
0000D0440000
0000D0440000
0000D0440000
0000D0440000
0000D0440000
DAE4FBECE45D
ENDCHAR
STARTCHAR iacute
ENCODING 237
SWIDTH 602 0
DWIDTH 7 0
BBX 6 11 1 0
BITMAP
0000002D2200
000026D81700
0005C1340000
000512000000
72E4FB440000
0000D0440000
0000D0440000
0000D0440000
0000D0440000
0000D0440000
DAE4FBECE45D
ENDCHAR
STARTCHAR icircumflex
ENCODING 238
SWIDTH 602 0
DWIDTH 7 0
BBX 6 11 1 0
BITMAP
00003D090000
004ADF830000
0AC414B62600
060F00090B00
72E4FB440000
0000D0440000
0000D0440000
0000D0440000
0000D0440000
0000D0440000
DAE4FBECE45D
ENDCHAR
STARTCHAR idieresis
ENCODING 239
SWIDTH 602 0
DWIDTH 7 0
BBX 6 10 1 0
BITMAP
17B80C994000
128C09743100
000000000000
72E4FB440000
0000D0440000
0000D0440000
0000D0440000
0000D0440000
0000D0440000
DAE4FBECE45D
ENDCHAR
STARTCHAR eth
ENCODING 240
SWIDTH 602 0
DWIDTH 7 0
BBX 7 10 0 0
BITMAP
000AA7401A3100
001196F7AD3200
00424A69D60B00
001AAEE5FF8D00
00BC9A0E3BF711
12FF150000D751
26FA000000BB6A
13FF120000D257
00C688034EF616
0026C8FADF4D00
ENDCHAR
STARTCHAR ntilde
ENCODING 241
SWIDTH 602 0
DWIDTH 7 0
BBX 6 10 1 0
BITMAP
10CBA54F7500
385F55BD2200
000000000000
D88ECBEC7800
D8A0012AFA0B
D8470000F026
D83C0000EC28
D83C0000EC28
D83C0000EC28
D83C0000EC28
ENDCHAR
STARTCHAR ograve
ENCODING 242
SWIDTH 602 0
DWIDTH 7 0
BBX 7 11 0 0
BITMAP
00123D00000000
0004BB54000000
000013CA1A0000
0000000C0A0000
002BCAF3DE4F00
01D17F0147F616
1DFF0E0000D256
2EF6000000BB6B
1BFF0E0000D257
01CF7C0144F616
002CCCF0DF5000
ENDCHAR
STARTCHAR oacute
ENCODING 243
SWIDTH 602 0
DWIDTH 7 0
BBX 7 11 0 0
BITMAP
000000002D2200
00000026D81700
000005C1340000
00000512000000
002BCAF3DE4F00
01D17F0147F616
1DFF0E0000D256
2EF6000000BB6B
1BFF0E0000D257
01CF7C0144F616
002CCCF0DF5000
ENDCHAR
STARTCHAR ocircumflex
ENCODING 244
SWIDTH 602 0
DWIDTH 7 0
BBX 7 11 0 0
BITMAP
0000003D090000
00004ADF830000
000AC414B62600
00060F00090B00
002BCAF3DE4F00
01D17F0147F616
1DFF0E0000D256
2EF6000000BB6B
1BFF0E0000D257
01CF7C0144F616
002CCCF0DF5000
ENDCHAR
STARTCHAR otilde
ENCODING 245
SWIDTH 602 0
DWIDTH 7 0
BBX 7 10 0 0
BITMAP
0010CBA54F7500
00385F55BD2200
00000000000000
002BCAF3DE4F00
01D17F0147F616
1DFF0E0000D256
2EF6000000BB6B
1BFF0E0000D257
01CF7C0144F616
002CCCF0DF5000
ENDCHAR
STARTCHAR odieresis
ENCODING 246
SWIDTH 602 0
DWIDTH 7 0
BBX 7 10 0 0
BITMAP
0017B80C994000
00128C09743100
00000000000000
002BCAF3DE4F00
01D17F0147F616
1DFF0E0000D256
2EF6000000BB6B
1BFF0E0000D257
01CF7C0144F616
002CCCF0DF5000
ENDCHAR
STARTCHAR divide
ENCODING 247
SWIDTH 602 0
DWIDTH 7 0
BBX 7 7 0 0
BITMAP
00001CFF540000
0000108C2E0000
3770707070704F
4EA0A0A0A0A071
00000B5C1F0000
00001CFF540000
0000052C0F0000
ENDCHAR
STARTCHAR oslash
ENCODING 248
SWIDTH 602 0
DWIDTH 7 0
BBX 7 9 0 -1
BITMAP
0000000000012C
0029C8F0E09C83
00CD7B0170FE17
19FF0C1EBDD855
2BF60ABC23BB67
1BFFAD4600D253
01E0AB0147F414
57A9CCF4DE4D00
2C050000000000
ENDCHAR
STARTCHAR ugrave
ENCODING 249
SWIDTH 602 0
DWIDTH 7 0
BBX 6 11 1 0
BITMAP
123D00000000
04BB54000000
0013CA1A0000
00000C0A0000
DC380000F424
DC380000F424
DC380000F424
DC380000F524
DA3A0004FC24
B8710057FF24
3BE3D28BF524
ENDCHAR
STARTCHAR uacute
ENCODING 250
SWIDTH 602 0
DWIDTH 7 0
BBX 6 11 1 0
BITMAP
0000002D2200
000026D81700
0005C1340000
000512000000
DC380000F424
DC380000F424
DC380000F424
DC380000F524
DA3A0004FC24
B8710057FF24
3BE3D28BF524
ENDCHAR
STARTCHAR ucircumflex
ENCODING 251
SWIDTH 602 0
DWIDTH 7 0
BBX 6 11 1 0
BITMAP
00003D090000
004ADF830000
0AC414B62600
060F00090B00
DC380000F424
DC380000F424
DC380000F424
DC380000F524
DA3A0004FC24
B8710057FF24
3BE3D28BF524
ENDCHAR
STARTCHAR udieresis
ENCODING 252
SWIDTH 602 0
DWIDTH 7 0
BBX 6 10 1 0
BITMAP
17B80C994000
128C09743100
000000000000
DC380000F424
DC380000F424
DC380000F424
DC380000F524
DA3A0004FC24
B8710057FF24
3BE3D28BF524
ENDCHAR
STARTCHAR yacute
ENCODING 253
SWIDTH 602 0
DWIDTH 7 0
BBX 7 14 0 -3
BITMAP
000000002D2200
00000026D81700
000005C1340000
00000512000000
35EA0400009192
01D7490003E735
0079A40043D801
001EF20B9C7C00
0000BD60EE2100
00005FEBC30000
00000DF6680000
000019F6130000
0049AFA3000000
00998F12000000
ENDCHAR
STARTCHAR thorn
ENCODING 254
SWIDTH 602 0
DWIDTH 7 0
BBX 6 13 1 -3
BITMAP
902200000000
E03400000000
E03400000000
E094E6E95F00
E0B6062BF31E
E0500000B962
E03A0000A376
E0500000B964
E0B6062AF321
E095E7EA6300
E03400000000
E03400000000
932300000000
ENDCHAR
STARTCHAR ydieresis
ENCODING 255
SWIDTH 602 0
DWIDTH 7 0
BBX 7 13 0 -3
BITMAP
0017B80C994000
00128C09743100
00000000000000
35EA0400009192
01D7490003E735
0079A40043D801
001EF20B9C7C00
0000BD60EE2100
00005FEBC30000
00000DF6680000
000019F6130000
0049AFA3000000
00998F12000000
ENDCHAR
STARTCHAR Cacute
ENCODING 262
SWIDTH 602 0
DWIDTH 7 0
BBX 7 12 0 0
BITMAP
00000001923000
000000588C0000
0000023B552E00
0010C7D5AAE247
0097B803000615
03F14800000000
1EFF1E00000000
26FF1600000000
13FF2800000000
00DB6300000000
0066E33105432E
000176E6FED72B
ENDCHAR
STARTCHAR cacute
ENCODING 263
SWIDTH 602 0
DWIDTH 7 0
BBX 6 11 1 0
BITMAP
0000000A4303
000000958200
000048B10200
000010070000
0173E3F1CF20
5DDF25003120
BA6D00000000
D14F00000000
B96E00000000
5AE128013120
0175E5F5D120
ENDCHAR
STARTCHAR Ccaron
ENCODING 268
SWIDTH 602 0
DWIDTH 7 0
BBX 7 12 0 0
BITMAP
0000495B2A7900
000003B0C41A00
0000023B552E00
0010C7D5AAE247
0097B803000615
03F14800000000
1EFF1E00000000
26FF1600000000
13FF2800000000
00DB6300000000
0066E33105432E
000176E6FED72B
ENDCHAR
STARTCHAR ccaron
ENCODING 269
SWIDTH 602 0
DWIDTH 7 0
BBX 6 11 1 0
BITMAP
002D0C003901
00469C558C00
0000A9D80D00
0000080F0000
0173E3F1CF20
5DDF25003120
BA6D00000000
D14F00000000
B96E00000000
5AE128013120
0175E5F5D120
ENDCHAR
STARTCHAR dcroat
ENCODING 273
SWIDTH 602 0
DWIDTH 7 0
BBX 8 10 0 0
BITMAP
0000000000960F00
00000084A8FFB123
000000161CFC3206
003BDBED92FB1800
04E2570187FF1800
31ED01001CFF1800
42DA000007FF1800
2DED01001CFF1800
03E0560187FF1800
003CDCED8DD11400
ENDCHAR
STARTCHAR Gbreve
ENCODING 286
SWIDTH 602 0
DWIDTH 7 0
BBX 7 12 0 0
BITMAP
001D8A166A4500
00017CC1960900
00000946511800
002AE3C2B0EC23
01CC8100001814
2BFF1400000000
55EA0000000000
5EE10000C3D062
4BF201002DB978
16FD2A0000A878
009EBF1E10C178
000A99F1FAB923
ENDCHAR
STARTCHAR gbreve
ENCODING 287
SWIDTH 602 0
DWIDTH 7 0
BBX 7 14 0 -3
BITMAP
00050A00060900
001EB92E9B4E00
000062B4820300
00000000000000
0038D6CD9EF620
03E1500060FF20
2EF402000AFF20
3FE6000000F920
28F9060013FF20
02D971017FFF20
0033DAF38AF91E
000000000FFC09
005359399FAC00
003FA5B5850D00
ENDCHAR
STARTCHAR Idotaccent
ENCODING 304
SWIDTH 602 0
DWIDTH 7 0
BBX 6 12 1 0
BITMAP
0000B6290000
00008E200000
495858585803
99B8FFC7B806
0000FC340000
0000FC340000
0000FC340000
0000FC340000
0000FC340000
0000FC340000
0E10FD411001
D4FFFFFFFF08
ENDCHAR
STARTCHAR dotlessi
ENCODING 305
SWIDTH 602 0
DWIDTH 7 0
BBX 6 7 1 0
BITMAP
72E4FB440000
0000D0440000
0000D0440000
0000D0440000
0000D0440000
0000D0440000
DAE4FBECE45D
ENDCHAR
STARTCHAR Lslash
ENCODING 321
SWIDTH 602 0
DWIDTH 7 0
BBX 8 10 -1 0
BITMAP
0000412800000000
0000BC7400000000
0000BC7400000000
0000BC7446700000
0000BCD5BF1A0000
001BDEA504000000
02BEE07400000000
0003BC7400000000
0000BC7D1010100B
0000BCFFFFFFFFAC
ENDCHAR
STARTCHAR lslash
ENCODING 322
SWIDTH 602 0
DWIDTH 7 0
BBX 7 10 0 0
BITMAP
0DCCCC99000000
021865C0000000
000054C0034F00
000054D2BC9002
000071F24F0000
0589E9C0000000
518558C0000000
000054C2000000
000033ED150000
00000198FAFC0C
ENDCHAR
STARTCHAR OE
ENCODING 338
SWIDTH 602 0
DWIDTH 7 0
BBX 8 10 0 0
BITMAP
0001335658585806
01A8EDC8FEB8B80C
3AF21630F8000000
73B80030F8000000
8BA10030FD847600
8E9D0030FD908100
83A60030F8000000
61C80030F8000000
1AF85A42F9101002
0054D8FBFCFCFC20
ENDCHAR
STARTCHAR oe
ENCODING 339
SWIDTH 602 0
DWIDTH 7 0
BBX 8 8 0 -1
BITMAP
2DDDF38CD9F16C00
A76218F86B1DE500
D62700D23B00E40B
E41D00C7F6F1F613
DC2100CA39000000
BC4102E756000600
5FDCB6D7E399C600
003B52092F5D2400
ENDCHAR
STARTCHAR Scedilla
ENCODING 350
SWIDTH 602 0
DWIDTH 7 0
BBX 7 13 0 -3
BITMAP
00002454460E00
0075F0B1C2E700
0FFA2900001F00
23FD0D00000000
03D5CF6F2A0000
001483CBFDAB05
0000000023EB53
0000000000BB70
0A88210340F43A
06AAEBFFE26E00
0000004F750000
00004371B20000
00004474230000
ENDCHAR
STARTCHAR scedilla
ENCODING 351
SWIDTH 602 0
DWIDTH 7 0
BBX 6 10 1 -3
BITMAP
24C8EFEB8500
A28C01083500
A0AD21010000
1BA5E7E86600
00000153F905
41110043EF03
80E8EDDA4C00
00004F750000
004371B20000
004474230000
ENDCHAR
STARTCHAR Scaron
ENCODING 352
SWIDTH 602 0
DWIDTH 7 0
BBX 7 12 0 0
BITMAP
0006920C881D00
000046CE7D0000
00002454460E00
0075F0B1C2E700
0FFA2900001F00
23FD0D00000000
03D5CF6F2A0000
001483CBFDAB05
0000000023EB53
0000000000BB70
0A88210340F43A
06AAEBFFE26E00
ENDCHAR
STARTCHAR scaron
ENCODING 353
SWIDTH 602 0
DWIDTH 7 0
BBX 6 11 1 0
BITMAP
0D2D001D1C00
03BE2AC31600
0032F1680000
000015020000
24C8EFEB8500
A28C01083500
A0AD21010000
1BA5E7E86600
00000153F905
41110043EF03
80E8EDDA4C00
ENDCHAR
STARTCHAR Ydieresis
ENCODING 376
SWIDTH 602 0
DWIDTH 7 0
BBX 8 12 0 0
BITMAP
0017B40C963E0000
0012900978320000
3D33000000205201
54E4080000B48E00
01C86F0039F01300
003EE80BBC770000
0000B3B0E3090000
00002BFF62000000
000000FC34000000
000000FC34000000
000000FC34000000
000000FC34000000
ENDCHAR
STARTCHAR Zcaron
ENCODING 381
SWIDTH 602 0
DWIDTH 7 0
BBX 7 12 0 0
BITMAP
0006AA21AB1D00
00002DB9590000
00545858585840
00B0B8B8B8EDAD
0000000026F531
00000001BA8C00
00000055E10C00
00000DE44D0000
00008CAD000000
002CEE1C000000
01C27C1010100E
14FFFFFFFFFFD8
ENDCHAR
STARTCHAR zcaron
ENCODING 382
SWIDTH 602 0
DWIDTH 7 0
BBX 6 11 1 0
BITMAP
0D2D001D1C00
03BE2AC31600
0032F1680000
000015020000
9FECECEEFF18
0000007CBE03
000040E51800
0016E4430000
03BA80000000
7CBE03000000
D0F6F0F0F017
ENDCHAR
STARTCHAR florin
ENCODING 402
SWIDTH 602 0
DWIDTH 7 0
BBX 8 13 0 -3
BITMAP
0000000034AEA705
0000000AE85C4406
00000045CA000000
0000006BA2000000
000F50AEA94C1300
001C94E6B7982600
000000DD31000000
000008FD0C000000
00002DE400000000
000055BE00000000
00008B8C00000000
6052EC2F00000000
89A24A0000000000
ENDCHAR
STARTCHAR circumflex
ENCODING 710
SWIDTH 602 0
DWIDTH 7 0
BBX 5 4 1 7
BITMAP
00003D0900
004ADF8300
0AC414B626
060F00090B
ENDCHAR
STARTCHAR caron
ENCODING 711
SWIDTH 602 0
DWIDTH 7 0
BBX 5 4 1 7
BITMAP
0D2D001D1C
03BE2AC316
0032F16800
0000150200
ENDCHAR
STARTCHAR breve
ENCODING 728
SWIDTH 602 0
DWIDTH 7 0
BBX 5 3 1 8
BITMAP
050A000609
1DB92E9B4E
0062B48203
ENDCHAR
STARTCHAR dotaccent
ENCODING 729
SWIDTH 602 0
DWIDTH 7 0
BBX 2 2 3 8
BITMAP
B629
8E20
ENDCHAR
STARTCHAR ring
ENCODING 730
SWIDTH 602 0
DWIDTH 7 0
BBX 4 5 2 7
BITMAP
04380F00
A794C60A
BF008C32
98ACC307
01210600
ENDCHAR
STARTCHAR ogonek
ENCODING 731
SWIDTH 602 0
DWIDTH 7 0
BBX 3 3 2 -3
BITMAP
408100
7A9641
0F6741
ENDCHAR
STARTCHAR tilde
ENCODING 732
SWIDTH 602 0
DWIDTH 7 0
BBX 5 2 1 8
BITMAP
10CBA54F75
375F55BD22
ENDCHAR
STARTCHAR hungarumlaut
ENCODING 733
SWIDTH 602 0
DWIDTH 7 0
BBX 5 4 2 7
BITMAP
003F054205
3AB34DAB00
B02AC11B00
1403120000
ENDCHAR
STARTCHAR Omega
ENCODING 937
SWIDTH 602 0
DWIDTH 7 0
BBX 7 10 0 0
BITMAP
0000021C070000
0037E1F4F25E00
08E56E0140F528
4DDF010000A883
75B200000078AC
7AB100000077B0
5BCF0000009690
14F41D0003DE3F
0C88AF057DB810
92FFFF24ECFFCC
ENDCHAR
STARTCHAR pi
ENCODING 960
SWIDTH 602 0
DWIDTH 7 0
BBX 7 8 0 -1
BITMAP
7AE5E6E8E9EAB1
05B3620827F103
00B05C0020F000
00B05C0020F000
00B05C0020F000
00B05C001FF401
00B05C0008F3B3
00000000001C29
ENDCHAR
STARTCHAR endash
ENCODING 8211
SWIDTH 602 0
DWIDTH 7 0
BBX 8 1 0 3
BITMAP
E4E4E4E4E4E4E432
ENDCHAR
STARTCHAR emdash
ENCODING 8212
SWIDTH 602 0
DWIDTH 7 0
BBX 8 1 0 3
BITMAP
E4E4E4E4E4E4E432
ENDCHAR
STARTCHAR quoteleft
ENCODING 8216
SWIDTH 602 0
DWIDTH 7 0
BBX 3 4 2 6
BITMAP
003C80
00BB77
2EFF3E
45F42E
ENDCHAR
STARTCHAR quoteright
ENCODING 8217
SWIDTH 602 0
DWIDTH 7 0
BBX 3 4 2 6
BITMAP
008890
00BEB8
02F050
2ACC02
ENDCHAR
STARTCHAR quotesinglbase
ENCODING 8218
SWIDTH 602 0
DWIDTH 7 0
BBX 3 4 2 -2
BITMAP
0FE461
1BFF57
54E005
705E00
ENDCHAR
STARTCHAR quotedblleft
ENCODING 8220
SWIDTH 602 0
DWIDTH 7 0
BBX 5 4 1 6
BITMAP
00922713A7
34F80881B1
AAC607EF79
BBB010F467
ENDCHAR
STARTCHAR quotedblright
ENCODING 8221
SWIDTH 602 0
DWIDTH 7 0
BBX 5 4 1 6
BITMAP
24BC355EBA
37FF3D87F0
6BD402BB88
9F5A04E017
ENDCHAR
STARTCHAR quotedblbase
ENCODING 8222
SWIDTH 602 0
DWIDTH 7 0
BBX 5 4 1 -2
BITMAP
2BE44172E1
3BFF338BE7
74C200C474
894404BE0C
ENDCHAR
STARTCHAR dagger
ENCODING 8224
SWIDTH 602 0
DWIDTH 7 0
BBX 7 12 0 -2
BITMAP
000000500B0000
000000E8200000
000000E8200000
09B8B8FAC1B834
034040EE584012
000000E8200000
000000E8200000
000000E8200000
000000E8200000
000000E8200000
000000E8200000
0000003A080000
ENDCHAR
STARTCHAR daggerdbl
ENCODING 8225
SWIDTH 602 0
DWIDTH 7 0
BBX 7 12 0 -2
BITMAP
000000500B0000
000000E8200000
000000E8200000
09B8B8FAC1B834
034040EE584012
000000E8200000
000000E8200000
055C5CF1715C1A
089C9CF7A99C2C
000000E8200000
000000E8200000
0000003A080000
ENDCHAR
STARTCHAR bullet
ENCODING 8226
SWIDTH 602 0
DWIDTH 7 0
BBX 5 5 1 2
BITMAP
0032914D00
09EDFFFE2C
17FFFFFF4A
009DFFC708
00000F0100
ENDCHAR
STARTCHAR ellipsis
ENCODING 8230
SWIDTH 602 0
DWIDTH 7 0
BBX 7 2 0 0
BITMAP
7CDE21E850ABAE
88F424FF58BCC0
ENDCHAR
STARTCHAR perthousand
ENCODING 8240
SWIDTH 602 0
DWIDTH 7 0
BBX 9 9 -1 0
BITMAP
0072CBAA0500000000
04C1017C4400000000
01C733A92C0B664C00
003199788BA94E0300
003FA3912800000000
00498D6F0343994200
00995A7F7DC331C211
00B01037AAA400A11F
0040CDC72293C98F00
ENDCHAR
STARTCHAR guilsinglleft
ENCODING 8249
SWIDTH 602 0
DWIDTH 7 0
BBX 3 7 2 0
BITMAP
000038
006CAD
77BE0D
D75A00
19D05B
001393
000002
ENDCHAR
STARTCHAR guilsinglright
ENCODING 8250
SWIDTH 602 0
DWIDTH 7 0
BBX 4 7 2 0
BITMAP
35030000
6FA40400
018DAD06
002AE820
2EDA3900
73310000
02000000
ENDCHAR
STARTCHAR Euro
ENCODING 8364
SWIDTH 602 0
DWIDTH 7 0
BBX 7 10 0 0
BITMAP
00000132552B00
00019DDEA7E430
004CE20E000910
00A48900000000
6CEFC8A4A41100
11D66E1C0D0000
5BE0C18C2B0000
008E9F00000000
0029F240014320
000050DDFAD41C
ENDCHAR
STARTCHAR trademark
ENCODING 8482
SWIDTH 602 0
DWIDTH 7 0
BBX 7 5 0 5
BITMAP
585832530D2B35
49B824CE79A898
0CA000A89C6498
0CA000A80D1298
042D003000052B
ENDCHAR
STARTCHAR partialdiff
ENCODING 8706
SWIDTH 602 0
DWIDTH 7 0
BBX 6 9 1 0
BITMAP
000B634C0100
007FB16D7700
00010100D502
000D2D03E71B
2CD74C66FB21
AD7C005AFE0A
D8490063CC00
B54800A15B00
2A9A6F800100
ENDCHAR
STARTCHAR Delta
ENCODING 8710
SWIDTH 602 0
DWIDTH 7 0
BBX 9 9 -1 0
BITMAP
00000026EC59000000
0000007DDEB4000000
000000D44AF2120000
00002BE602B0630000
00008293005CBA0000
0001D93F000FF61600
0030E9030000B46900
0087A314141470C100
01DDFFFFFFFFFFFE1B
ENDCHAR
STARTCHAR product
ENCODING 8719
SWIDTH 602 0
DWIDTH 7 0
BBX 7 13 0 -3
BITMAP
0A58585858581D
1CE67C7C7CC954
1CCC0000009454
1CCC0000009454
1CCC0000009454
1CCC0000009454
1CCC0000009454
1CCC0000009454
1CCC0000009454
1CCC0000009454
1CCC0000009454
1CCC0000009454
19B6000000844B
ENDCHAR
STARTCHAR summation
ENCODING 8721
SWIDTH 602 0
DWIDTH 7 0
BBX 7 13 0 -3
BITMAP
0E585858585815
10ED9488888820
00678A00000000
0003C52A000000
000034BD010000
000000965B0000
00000019D80000
000000777A0000
000015D40A0000
0000955E000000
0028CA02000000
00B34200000000
1DE4D8D8D8D84E
ENDCHAR
STARTCHAR minus
ENCODING 8722
SWIDTH 602 0
DWIDTH 7 0
BBX 7 2 0 3
BITMAP
448C8C8C8C8C63
4084848484845D
ENDCHAR
STARTCHAR fraction
ENCODING 8725
SWIDTH 602 0
DWIDTH 7 0
BBX 7 12 0 -2
BITMAP
00000000004D17
000000002CEC0A
000000009B8500
00000015F21B00
0000007BA60000
000006E5370000
00005AC6000000
0001CA56000000
003AE305000000
00AA7600000000
1EF11200000000
13280000000000
ENDCHAR
STARTCHAR periodcentered
ENCODING 8729
SWIDTH 602 0
DWIDTH 7 0
BBX 3 3 2 3
BITMAP
0F6824
24FF58
12802C
ENDCHAR
STARTCHAR radical
ENCODING 8730
SWIDTH 602 0
DWIDTH 7 0
BBX 7 12 0 -1
BITMAP
00000000000694
0000000000439F
00000000008F46
0000000001CF07
0000000028B000
4ECA2F00746500
2A757600BF1B00
0019BD11CA0000
0000CA65830000
000089E6380000
000042EA030000
00000630000000
ENDCHAR
STARTCHAR infinity
ENCODING 8734
SWIDTH 602 0
DWIDTH 7 0
BBX 7 6 0 1
BITMAP
00342B00183E01
59C7CE54D5AC83
B1171CF55101C2
B30F15F84300C6
62AAC271CE93A2
015146002E610A
ENDCHAR
STARTCHAR integral
ENCODING 8747
SWIDTH 602 0
DWIDTH 7 0
BBX 7 13 0 -3
BITMAP
0000000068A620
000000458ED94D
0000009D590000
000000CC420000
000000E9370000
000000FA320000
000002FF2D0000
000006FF220000
00000EFF0F0000
00001DEC000000
03453BB1000000
28FFBB41000000
00412C00000000
ENDCHAR
STARTCHAR approxequal
ENCODING 8776
SWIDTH 602 0
DWIDTH 7 0
BBX 7 6 0 1
BITMAP
00000200000001
32D7FEC15D5787
43341159B8B940
128CAD6D0D0B4D
66805CA4F6F574
020000000B0B00
ENDCHAR
STARTCHAR notequal
ENCODING 8800
SWIDTH 602 0
DWIDTH 7 0
BBX 7 8 0 0
BITMAP
0000000000682C
0000000038E518
67D4D4D4F0EE96
1E3C3DCF993C2B
23487DED4F4833
63E1F8CCCCCC90
07CD6700000000
0F7A0100000000
ENDCHAR
STARTCHAR lessequal
ENCODING 8804
SWIDTH 602 0
DWIDTH 7 0
BBX 7 7 0 0
BITMAP
0000000017687D
001667BDF6B852
69FDB6560E0000
33A6EFBD6E2000
00000952A8F49B
08101010101A3D
80FFFFFFFFFFB4
ENDCHAR
STARTCHAR greaterequal
ENCODING 8805
SWIDTH 602 0
DWIDTH 7 0
BBX 7 7 0 0
BITMAP
5B7B2600000000
35A7F0CF792400
000006459CFC9A
00125DACEFB84E
67F8BA64130000
2F24101010100C
7CFFFFFFFFFFB4
ENDCHAR
STARTCHAR lozenge
ENCODING 9674
SWIDTH 602 0
DWIDTH 7 0
BBX 7 14 0 -3
BITMAP
0000000F000000
000000B60D0000
000036B36E0000
00009B12AB0300
001C91005F5000
0085280007A900
0AA30000007E32
307D000000456B
01A9030000A011
005A52001F9100
0006A600892600
00007A3DA20000
000014E1430000
0000006D010000
ENDCHAR
STARTCHAR fi
ENCODING 64257
SWIDTH 602 0
DWIDTH 7 0
BBX 7 10 0 0
BITMAP
000B8FBB678D3E
0077BC3B1F8D3E
009C7900000000
B3F6F2E4E4F954
009C780000C054
009C780000C054
009C780000C054
009C780000C054
009C780000C054
009C780000C054
ENDCHAR
STARTCHAR fl
ENCODING 64258
SWIDTH 602 0
DWIDTH 7 0
BBX 7 10 0 0
BITMAP
000B8FBBBCBC3E
0076BE3F3CD353
009C790000C453
B3F6F2E42BC452
009C780000C452
009C780000C452
009C780000C451
009C780000C451
009C780000C450
009C780000C450
ENDCHAR
STARTCHAR .notdef
ENCODING -1
SWIDTH 602 0
DWIDTH 7 0
BBX 7 13 0 -3
BITMAP
050C0C0C0C0C08
64C4ACACACB29C
6448000000109C
6448000000109C
6448000000109C
6448000000109C
6448000000109C
6448000000109C
6448000000109C
6448000000109C
6448000000109C
649C7474747D9C
1B44444444442A
ENDCHAR
STARTCHAR c6459
ENCODING -1
SWIDTH 602 0
DWIDTH 7 0
BBX 5 2 1 8
BITMAP
0B5806491F
1EEC0FC452
ENDCHAR
STARTCHAR c6460
ENCODING -1
SWIDTH 602 0
DWIDTH 7 0
BBX 4 3 2 7
BITMAP
00267401
05C23400
05120000
ENDCHAR
STARTCHAR c6461
ENCODING -1
SWIDTH 602 0
DWIDTH 7 0
BBX 5 3 1 7
BITMAP
00402A142E
31B6ABD346
0202000000
ENDCHAR
STARTCHAR c6468
ENCODING -1
SWIDTH 602 0
DWIDTH 7 0
BBX 3 3 2 7
BITMAP
534500
13CA1A
000C0A
ENDCHAR
STARTCHAR c6470
ENCODING -1
SWIDTH 602 0
DWIDTH 7 0
BBX 5 3 1 7
BITMAP
0018943900
02AF49C014
0411000C09
ENDCHAR
STARTCHAR c6472
ENCODING -1
SWIDTH 602 0
DWIDTH 7 0
BBX 5 3 1 7
BITMAP
067603641D
0061BF9B00
0001180500
ENDCHAR
STARTCHAR c6477
ENCODING -1
SWIDTH 602 0
DWIDTH 7 0
BBX 7 3 0 3
BITMAP
00000000063D2F
022F72AEB27A24
8C884409000000
ENDCHAR
STARTCHAR c6478
ENCODING -1
SWIDTH 602 0
DWIDTH 7 0
BBX 5 6 1 4
BITMAP
0000243900
0006B9A400
00785AA400
278828A400
4EB2BDE43A
0000249300
ENDCHAR
STARTCHAR c6475
ENCODING -1
SWIDTH 602 0
DWIDTH 7 0
BBX 5 2 1 8
BITMAP
1A60004039
03A7D7BF15
ENDCHAR
STARTCHAR c6476
ENCODING -1
SWIDTH 602 0
DWIDTH 7 0
BBX 2 2 3 8
BITMAP
5714
ED35
ENDCHAR
ENDFONT
